<svg width="83" height="83" viewBox="0 0 83 83" fill="none" xmlns="http://www.w3.org/2000/svg">
<path d="M0 0H83V41.5C83 64.4198 64.4198 83 41.5 83V83C18.5802 83 0 64.4198 0 41.5V0Z" fill="#116486"/>
<path d="M49.8018 10.6653C49.4787 10.0464 49.4062 9.39975 49.5843 8.72537C49.6009 8.66455 49.6335 8.61493 49.6822 8.57652C50.1876 8.17637 50.6651 8.21052 51.1146 8.67895C51.9152 9.51019 52.6542 10.5298 53.3315 11.7377C53.3543 11.7793 53.3859 11.8113 53.4263 11.8337C55.1673 12.8229 56.376 14.2837 57.0524 16.2161C57.071 16.2705 57.1052 16.3111 57.1549 16.3377C66.4126 21.2691 72.5818 30.4645 73.7781 41.0699C73.9288 42.4144 74.1898 43.4708 74.1261 44.596C74.1219 44.6547 74.0919 44.6841 74.036 44.6841H9.81449C9.75235 44.6841 9.72076 44.6515 9.71972 44.5864L9.70574 43.1235C9.70471 43.0701 9.73008 43.0435 9.78187 43.0435H22.5507C22.6159 43.0435 22.6485 43.0098 22.6485 42.9426V42.1968C22.6485 42.1306 22.6164 42.0975 22.5522 42.0975C20.2125 42.1028 18.0997 41.4109 16.2136 40.0216C16.1722 39.9917 16.1277 39.9837 16.08 39.9976C14.0355 40.6186 11.9465 40.9536 9.81294 41.0027C9.79079 41.0032 9.76935 40.9947 9.75312 40.9792C9.73689 40.9637 9.72714 40.9423 9.72594 40.9195L9.67001 39.9175C9.66938 39.9048 9.67123 39.892 9.67544 39.88C9.67965 39.868 9.68614 39.857 9.69453 39.8476C9.70292 39.8382 9.71304 39.8307 9.7243 39.8254C9.73556 39.82 9.74774 39.8171 9.76012 39.8167C11.5188 39.7591 13.251 39.5088 14.9568 39.066C14.9674 39.0634 14.9771 39.0579 14.9849 39.0501C14.9927 39.0423 14.9983 39.0325 15.0012 39.0217C15.004 39.0109 15.004 38.9995 15.0011 38.9887C14.9982 38.9779 14.9926 38.9681 14.9848 38.9604C14.0464 38.0176 13.3675 36.7516 13.4188 35.3991C13.5244 32.5901 17.0075 29.1904 19.4917 31.9338C22.0318 34.7396 20.7252 37.9856 17.5575 39.3653C17.546 39.3702 17.536 39.3784 17.5287 39.3888C17.5215 39.3993 17.5172 39.4116 17.5164 39.4245C17.5156 39.4373 17.5183 39.4501 17.5242 39.4614C17.53 39.4727 17.5389 39.4822 17.5497 39.4886C19.1219 40.4436 20.8241 40.9099 22.6563 40.8875C22.7226 40.8875 22.7599 40.8539 22.7682 40.7866C24.2891 28.9551 36.4396 21.8758 46.9557 26.7671C53.2383 29.6898 57.1114 35.8456 57.2279 42.933C57.2289 43.0066 57.2652 43.0435 57.3367 43.0435H65.7601C65.814 43.0435 65.8399 43.0157 65.8378 42.9602C65.4836 33.3103 60.1222 25.2194 52.0747 20.6513C52.0665 20.6467 52.0575 20.6438 52.0482 20.643C52.0389 20.6421 52.0295 20.6432 52.0206 20.6462C52.0117 20.6492 52.0035 20.654 51.9965 20.6604C51.9895 20.6668 51.9839 20.6746 51.9799 20.6833C51.6744 21.3481 51.2311 21.8912 50.6501 22.3127C48.531 23.8493 47.6362 21.7733 48.4409 19.9487C48.4668 19.8889 48.4492 19.851 48.3881 19.835C47.2198 19.5357 45.1706 19.0795 44.7465 17.7799C44.4886 16.9892 44.9935 16.2721 45.6336 15.8352C45.6906 15.7957 45.6901 15.7573 45.6321 15.7199C45.0448 15.3342 44.4405 14.9484 44.0086 14.3818C43.297 13.4535 43.6481 12.3795 44.8087 12.2002C45.4073 12.1074 46.0163 12.1693 46.6357 12.3859C46.66 12.3948 46.6865 12.3952 46.7111 12.3871C46.7357 12.379 46.757 12.3628 46.7718 12.341C46.7866 12.3192 46.7941 12.293 46.7931 12.2664C46.792 12.2399 46.7826 12.2144 46.7662 12.1938C46.2333 11.5136 46.3607 10.5132 47.1173 10.0939C47.9344 9.6409 49.0313 10.2619 49.7319 10.7325C49.7412 10.7383 49.752 10.7407 49.7628 10.7396C49.7735 10.7384 49.7836 10.7337 49.7915 10.7261C49.7994 10.7185 49.8047 10.7084 49.8066 10.6975C49.8084 10.6865 49.8068 10.6752 49.8018 10.6653ZM50.1125 19.2012C49.546 19.8339 49.2079 20.5793 49.0981 21.4372C49.0774 21.5994 49.1442 21.7018 49.2985 21.7445C50.2632 22.0086 51.1581 20.0767 51.4346 19.3132C51.4522 19.2631 51.4849 19.2497 51.5325 19.2732C60.5557 23.7516 66.4235 32.6173 66.8445 42.9618C66.8466 43.0141 66.873 43.0403 66.9237 43.0403L72.8304 43.0499C72.8464 43.0499 72.8622 43.0465 72.8769 43.0399C72.8915 43.0333 72.9047 43.0236 72.9157 43.0115C72.9266 42.9993 72.935 42.985 72.9404 42.9693C72.9458 42.9536 72.948 42.9369 72.9469 42.9202C72.2214 31.753 66.0506 22.1447 56.3812 17.0724C56.3346 17.0479 56.3009 17.0105 56.2802 16.9604C55.4957 15.0685 54.7515 13.7512 52.9416 12.746C52.7427 12.6356 52.5765 12.4467 52.4755 12.2739C51.9618 11.4042 51.3766 10.5506 50.72 9.71293C50.7085 9.69886 50.6929 9.68896 50.6755 9.68467C50.6581 9.68037 50.6398 9.68191 50.6234 9.68906C50.6069 9.6962 50.5931 9.70859 50.5839 9.7244C50.5747 9.74021 50.5707 9.75862 50.5724 9.77695C50.6687 10.5884 51.5061 11.8561 51.9069 12.6036C51.9411 12.6676 51.9307 12.7236 51.8759 12.7716L51.3383 13.2326C51.2793 13.2828 51.2218 13.2812 51.1659 13.2278C50.226 12.3347 49.0546 11.2975 47.8024 10.9422C47.7617 10.9304 47.7188 10.9295 47.6776 10.9396C47.6365 10.9496 47.5985 10.9703 47.5672 10.9997C47.5358 11.0291 47.5122 11.0663 47.4984 11.1077C47.4847 11.1492 47.4813 11.1935 47.4886 11.2367C47.6921 12.4099 49.9494 13.6568 50.9266 14.1305C50.996 14.1636 51.0121 14.2148 50.9748 14.2842L50.5833 14.9965C50.5522 15.053 50.5087 15.0663 50.4528 15.0365C48.8262 14.1882 46.6698 13.151 44.8164 13.2326C44.7818 13.2342 44.7482 13.245 44.7188 13.264C44.6894 13.283 44.6654 13.3095 44.6489 13.341C44.6325 13.3724 44.6242 13.4077 44.625 13.4435C44.6258 13.4792 44.6355 13.5141 44.6533 13.5447C45.4503 14.9244 48.3772 15.848 49.791 16.3826C49.8614 16.4082 49.88 16.4557 49.8469 16.525L49.5067 17.2341C49.4838 17.2823 49.4437 17.3196 49.3947 17.3381C49.3458 17.3566 49.2918 17.3549 49.2441 17.3333C48.4394 16.9732 46.0577 15.9216 45.6491 17.3349C45.6346 17.3851 45.6398 17.4325 45.6647 17.4774C46.2131 18.5017 49.0157 18.9211 50.0722 19.0843C50.1571 19.0971 50.1705 19.1361 50.1125 19.2012ZM49.3295 43.0275L49.9168 42.9986C51.6599 43.0488 53.4015 43.0627 55.1415 43.0403C55.3294 43.0387 55.5982 43.1059 55.8545 43.0259C55.9053 43.0098 55.9296 42.9746 55.9276 42.9202C55.7049 37.4878 53.605 33.1812 49.6278 30.0003C43.3141 24.9505 34.6685 25.6275 28.9125 31.1735C28.7779 31.3027 28.7334 31.4291 28.7789 31.5529C29.9255 34.6148 29.3367 38.5314 26.8307 40.6298C26.1617 41.19 25.2559 41.6035 24.1135 41.8702C24.0566 41.883 24.0255 41.9199 24.0203 41.9807L23.9535 42.9154C23.9484 42.9922 23.9831 43.0307 24.0576 43.0307L49.3295 43.0275ZM18.6496 32.7757C16.9205 30.9351 14.7486 33.5968 14.6135 35.2934C14.5125 36.5595 15.2846 37.7471 16.2385 38.485C16.2735 38.5116 16.3143 38.5288 16.3574 38.5352C16.4004 38.5417 16.4445 38.537 16.4855 38.5218C17.5435 38.1297 18.9184 37.3182 19.4264 36.2682C19.9717 35.1446 19.4497 33.6272 18.6496 32.7757ZM24.2627 40.5962C27.6308 39.5814 28.8737 35.6824 27.8126 32.4412C27.7919 32.3772 27.7608 32.3718 27.7194 32.4252C25.9949 34.6393 24.8344 37.1784 24.2378 40.0424C24.1995 40.227 24.1762 40.386 24.1679 40.5193C24.1638 40.5908 24.1954 40.6164 24.2627 40.5962Z" fill="white"/>
<path d="M50.0722 19.0849C49.0157 18.9216 46.2131 18.5023 45.6647 17.4779C45.6398 17.4331 45.6346 17.3856 45.6491 17.3354C46.0577 15.9221 48.4394 16.9737 49.2441 17.3338C49.2918 17.3554 49.3458 17.3571 49.3948 17.3386C49.4437 17.3201 49.4838 17.2828 49.5067 17.2346L49.8469 16.5255C49.88 16.4562 49.8614 16.4087 49.791 16.3831C48.3772 15.8485 45.4503 14.925 44.6533 13.5453C44.6355 13.5146 44.6258 13.4797 44.625 13.444C44.6243 13.4083 44.6325 13.373 44.6489 13.3415C44.6654 13.3101 44.6894 13.2836 44.7188 13.2646C44.7482 13.2456 44.7818 13.2347 44.8164 13.2331C46.6698 13.1515 48.8262 14.1887 50.4528 15.037C50.5087 15.0669 50.5522 15.0535 50.5833 14.997L50.9748 14.2847C51.0121 14.2154 50.996 14.1641 50.9266 14.1311C49.9494 13.6573 47.6921 12.4104 47.4886 11.2372C47.4813 11.1941 47.4847 11.1497 47.4984 11.1083C47.5122 11.0668 47.5358 11.0297 47.5672 11.0003C47.5985 10.9709 47.6365 10.9502 47.6776 10.9401C47.7188 10.93 47.7617 10.9309 47.8024 10.9427C49.0546 11.298 50.226 12.3352 51.1659 13.2283C51.2218 13.2817 51.2793 13.2833 51.3383 13.2331L51.8759 12.7722C51.9307 12.7242 51.9411 12.6681 51.9069 12.6041C51.5061 11.8566 50.6687 10.589 50.5724 9.77748C50.5707 9.75915 50.5747 9.74074 50.5839 9.72493C50.5931 9.70912 50.6069 9.69674 50.6234 9.68959C50.6398 9.68244 50.6581 9.6809 50.6755 9.6852C50.6929 9.68949 50.7085 9.69939 50.72 9.71346C51.3766 10.5511 51.9618 11.4047 52.4755 12.2744C52.5765 12.4473 52.7427 12.6361 52.9416 12.7466C54.7515 13.7517 55.4957 15.069 56.2802 16.9609C56.3009 17.0111 56.3346 17.0484 56.3812 17.0729C66.0506 22.1452 72.2214 31.7535 72.9469 42.9207C72.948 42.9374 72.9458 42.9541 72.9404 42.9698C72.935 42.9855 72.9266 42.9999 72.9157 43.012C72.9047 43.0242 72.8915 43.0339 72.8769 43.0405C72.8622 43.0471 72.8464 43.0504 72.8304 43.0504L66.9237 43.0408C66.873 43.0408 66.8466 43.0147 66.8445 42.9624C66.4235 32.6178 60.5557 23.7522 51.5325 19.2737C51.4849 19.2503 51.4522 19.2636 51.4346 19.3138C51.1581 20.0772 50.2632 22.0091 49.2985 21.745C49.1442 21.7024 49.0774 21.5999 49.0981 21.4377C49.2079 20.5798 49.546 19.8345 50.1126 19.2017C50.1706 19.1366 50.1571 19.0977 50.0722 19.0849Z" fill="#E9DFD3"/>
<path d="M49.9168 42.9985C49.8282 41.63 49.5781 40.5176 48.5341 39.5908C48.4875 39.5503 48.4347 39.5391 48.3757 39.5572L48.2716 39.5908C48.2599 39.5946 48.2493 39.6012 48.2408 39.6102C48.2322 39.6191 48.2259 39.63 48.2225 39.642C48.2191 39.6539 48.2187 39.6665 48.2213 39.6785C48.2239 39.6906 48.2294 39.7017 48.2374 39.7109C49.0069 40.6392 49.371 41.7447 49.3296 43.0273L24.0576 43.0305C23.9831 43.0305 23.9484 42.9921 23.9535 42.9153L24.0203 41.9805C24.0255 41.9197 24.0566 41.8829 24.1136 41.8701C25.2559 41.6033 26.1617 41.1898 26.8308 40.6296C29.3367 38.5313 29.9255 34.6146 28.7789 31.5527C28.7334 31.4289 28.7779 31.3025 28.9125 31.1734C34.6685 25.6274 43.3141 24.9503 49.6278 30.0002C53.605 33.181 55.7049 37.4877 55.9276 42.9201C55.9296 42.9745 55.9053 43.0097 55.8545 43.0257C55.5982 43.1057 55.3294 43.0385 55.1415 43.0401C53.4015 43.0625 51.6599 43.0486 49.9168 42.9985ZM43.8827 35.7238L43.4571 35.2661C43.3856 35.1892 43.3897 35.1172 43.4695 35.05C43.8465 34.7363 43.9387 34.3436 43.746 33.872C43.7327 33.8389 43.7095 33.811 43.6799 33.7923C43.6502 33.7736 43.6155 33.765 43.5809 33.7679C43.5462 33.7707 43.5133 33.7848 43.4869 33.8081C43.4604 33.8314 43.4418 33.8627 43.4338 33.8976C43.354 34.2337 43.2043 34.5319 42.9848 34.7923C42.9506 34.8328 42.9107 34.8403 42.8651 34.8147C42.5907 34.6568 42.295 34.5602 41.9781 34.525C41.9515 34.5214 41.9245 34.5278 41.9021 34.543C41.8797 34.5582 41.8633 34.5811 41.856 34.6077C41.8486 34.6343 41.8508 34.6627 41.8621 34.6878C41.8734 34.7128 41.893 34.7329 41.9175 34.7443C43.6715 35.6166 44.8863 38.1887 42.4503 39.2467C42.3986 39.2691 42.3758 39.3086 42.382 39.3652L42.3913 39.4612C42.3986 39.5359 42.4379 39.5647 42.5094 39.5476C43.7212 39.2649 44.3395 38.496 44.3643 37.2412C44.3706 36.9675 44.2587 36.6458 44.2152 36.3513C44.208 36.3011 44.2245 36.2611 44.2649 36.2312C44.6885 35.9164 44.8035 35.5046 44.6098 34.9956C44.5988 34.9663 44.5796 34.9411 44.5547 34.923C44.5298 34.905 44.5002 34.895 44.4697 34.8944C44.4393 34.8937 44.4093 34.9023 44.3836 34.9192C44.358 34.9361 44.3377 34.9604 44.3255 34.9892L44.0272 35.6982C43.992 35.7815 43.9438 35.79 43.8827 35.7238Z" fill="#E9DFD3"/>
<path d="M27.813 32.4413C28.8741 35.6824 27.6312 39.5815 24.2631 40.5962C24.1957 40.6165 24.1642 40.5909 24.1683 40.5194C24.1766 40.386 24.1999 40.227 24.2382 40.0424C24.8348 37.1784 25.9953 34.6394 27.7198 32.4252C27.7612 32.3719 27.7923 32.3772 27.813 32.4413Z" fill="#615C51"/>
<path d="M44.0268 35.6987L44.3251 34.9896C44.3373 34.9609 44.3575 34.9365 44.3832 34.9196C44.4089 34.9027 44.4388 34.8941 44.4693 34.8948C44.4997 34.8955 44.5293 34.9055 44.5542 34.9235C44.5792 34.9415 44.5983 34.9667 44.6093 34.996C44.803 35.505 44.688 35.9169 44.2645 36.2317C44.2241 36.2615 44.2075 36.3016 44.2148 36.3517C44.2583 36.6462 44.3701 36.9679 44.3639 37.2416C44.339 38.4965 43.7208 39.2653 42.5091 39.5481C42.4377 39.5651 42.3983 39.5363 42.3911 39.4616L42.3818 39.3656C42.3756 39.309 42.3983 39.2696 42.4501 39.2472C44.8858 38.1892 43.6711 35.617 41.9173 34.7447C41.8929 34.7333 41.8732 34.7133 41.8619 34.6882C41.8506 34.6631 41.8485 34.6347 41.8558 34.6082C41.8631 34.5816 41.8795 34.5586 41.9019 34.5434C41.9243 34.5282 41.9513 34.5219 41.9779 34.5254C42.2948 34.5607 42.5904 34.6572 42.8649 34.8151C42.9104 34.8408 42.9503 34.8333 42.9845 34.7927C43.204 34.5324 43.3537 34.2341 43.4334 33.898C43.4415 33.8632 43.4601 33.8318 43.4865 33.8085C43.5129 33.7852 43.5458 33.7712 43.5805 33.7683C43.6152 33.7655 43.6498 33.774 43.6795 33.7927C43.7092 33.8114 43.7323 33.8393 43.7456 33.8724C43.9383 34.344 43.8461 34.7367 43.4691 35.0504C43.3894 35.1177 43.3853 35.1897 43.4567 35.2665L43.8823 35.7243C43.9434 35.7904 43.9916 35.7819 44.0268 35.6987Z" fill="#201812"/>
<path d="M49.9166 42.9987L49.3294 43.0275C49.3708 41.7449 49.0068 40.6395 48.2374 39.7111C48.2294 39.7019 48.2239 39.6908 48.2213 39.6788C48.2187 39.6667 48.2191 39.6542 48.2225 39.6422C48.2259 39.6303 48.2322 39.6193 48.2408 39.6104C48.2493 39.6015 48.2599 39.5948 48.2716 39.5911L48.3756 39.5575C48.4347 39.5393 48.4875 39.5505 48.5341 39.5911C49.578 40.5178 49.8281 41.6302 49.9166 42.9987Z" fill="#201812"/>
<path d="M30.7472 53.3723C30.6965 52.9412 30.6188 52.9359 30.5142 53.3563L29.3723 57.8971C29.365 57.9261 29.3505 57.9526 29.3301 57.974C29.3098 57.9954 29.2844 58.0109 29.2564 58.019C29.2284 58.0271 29.1988 58.0275 29.1707 58.0202C29.1425 58.0128 29.1167 57.998 29.0958 57.9772C29.0254 57.9057 28.9648 57.7995 28.914 57.6587C28.4065 56.2373 27.999 54.7963 27.6914 53.3355C27.6867 53.3156 27.6759 53.2979 27.6605 53.285C27.6451 53.2721 27.626 53.2649 27.6062 53.2643C27.5863 53.2638 27.5669 53.27 27.5508 53.282C27.5348 53.294 27.523 53.3111 27.5174 53.3307L26.2932 57.7387C26.2787 57.7912 26.2486 57.8377 26.2072 57.8718C26.1657 57.906 26.1148 57.926 26.0617 57.9292C25.753 57.9473 25.4537 57.9009 25.1637 57.7899C25.1171 57.7718 25.0938 57.7371 25.0938 57.6859C25.0917 57.162 25.1295 56.6423 25.2072 56.1269C25.5107 54.1112 25.9286 52.1212 26.4609 50.1567C26.6898 49.3095 27.0057 48.5279 27.4086 47.8119C27.421 47.7903 27.4392 47.7729 27.461 47.7618C27.4828 47.7506 27.5072 47.7462 27.5314 47.7491C27.5555 47.752 27.5784 47.762 27.5971 47.778C27.6159 47.794 27.6297 47.8152 27.637 47.8391C28.1901 49.7102 28.6561 51.4644 29.1129 53.4315C29.1419 53.5553 29.1781 53.558 29.2216 53.4395C29.5059 52.6777 31.2397 48.1544 31.8099 48.0232C31.8731 48.0082 31.9083 48.0338 31.9155 48.1C32.2666 51.1582 32.5427 54.2206 32.7436 57.2873C32.7581 57.505 32.7415 57.72 32.6939 57.9324C32.6794 57.9996 32.6385 58.0311 32.5711 58.0268L31.3625 57.95C31.3076 57.9468 31.2765 57.9169 31.2692 57.8603L30.7472 53.3723Z" fill="white"/>
<path d="M70.6224 52.7785C71.3059 51.6132 71.7642 49.9951 72.1262 48.7962C72.4028 47.8823 73.164 47.599 74.0154 48.0087C74.0744 48.0375 74.0951 48.084 74.0775 48.148C73.3862 50.6017 72.3779 53.0634 71.466 55.2466C70.7684 56.9144 70.018 58.3725 67.9689 58.0572C67.9254 58.0497 67.9052 58.023 67.9083 57.9772L67.9937 56.6999C67.9979 56.6455 68.0243 56.6065 68.073 56.5831C68.9026 56.1749 69.9916 56.2213 69.4945 54.8032C68.8751 53.0362 68.1558 51.3113 67.3366 49.6285C67.0963 49.1334 66.9093 48.6121 66.7757 48.0648C66.7717 48.0488 66.7714 48.0321 66.7746 48.016C66.7779 47.9999 66.7847 47.9847 66.7946 47.9716C66.8045 47.9585 66.8171 47.9478 66.8316 47.9404C66.8461 47.933 66.8621 47.929 66.8783 47.9287L68.0636 47.9239C68.1092 47.9239 68.1449 47.9436 68.1708 47.9831C68.4857 48.4548 68.668 48.7701 68.7177 48.9291C69.1496 50.296 69.7462 51.5796 70.5074 52.7801C70.5468 52.842 70.5851 52.8414 70.6224 52.7785Z" fill="white"/>
<path d="M42.2206 49.5999L39.5018 49.8208C39.4604 49.824 39.4397 49.8475 39.4397 49.8912L39.5158 57.6845C39.5162 57.7157 39.5106 57.7467 39.4993 57.7757C39.4879 57.8047 39.4711 57.8312 39.4497 57.8535C39.4283 57.8758 39.4028 57.8936 39.3747 57.9058C39.3466 57.918 39.3164 57.9243 39.2859 57.9246L38.1192 57.931C38.057 57.932 38.0244 57.9005 38.0213 57.8365C37.8333 54.5969 38.043 51.3205 38.1254 48.0954C38.1258 48.0754 38.13 48.0557 38.1378 48.0374C38.1456 48.0191 38.1568 48.0026 38.1708 47.9888C38.1848 47.975 38.2013 47.9641 38.2194 47.9569C38.2374 47.9496 38.2567 47.9461 38.2761 47.9465L43.6747 48.0458C43.7193 48.0458 43.741 48.0687 43.74 48.1146C43.6178 51.3435 43.5836 54.5735 43.6375 57.8045C43.6385 57.8664 43.609 57.8979 43.5489 57.8989L42.4598 57.9198C42.4069 57.9207 42.3557 57.9007 42.3164 57.8639C42.2772 57.827 42.2529 57.776 42.2486 57.7213C42.0357 55.0547 42.2004 52.3145 42.2641 49.6415C42.2644 49.6357 42.2634 49.6299 42.2613 49.6245C42.2591 49.6191 42.2559 49.6143 42.2517 49.6103C42.2476 49.6064 42.2427 49.6034 42.2373 49.6016C42.2319 49.5998 42.2262 49.5992 42.2206 49.5999Z" fill="white"/>
<path d="M22.1704 54.8913L19.9908 54.9841C19.9298 54.9865 19.8711 55.0084 19.8224 55.0468C19.7738 55.0852 19.7376 55.1382 19.7189 55.1986L18.9219 57.7931C18.907 57.8415 18.876 57.8829 18.8343 57.9101C18.7925 57.9373 18.7427 57.9486 18.6935 57.942L17.606 57.7899C17.4942 57.775 17.4553 57.7115 17.4895 57.5995C18.4822 54.3167 19.5589 51.0979 21.2305 48.0968C21.2947 47.9816 21.3605 47.981 21.4278 48.0952C21.4879 48.1976 21.549 48.3337 21.6111 48.5033C22.6997 51.4559 23.6862 54.4591 24.5707 57.513C24.6204 57.6838 24.5588 57.7697 24.3858 57.7707L23.2035 57.7755C23.1321 57.7766 23.086 57.7419 23.0653 57.6715L22.2698 54.9633C22.2543 54.9131 22.2212 54.8891 22.1704 54.8913ZM20.3123 53.694C20.3084 53.7034 20.3069 53.7137 20.3078 53.7239C20.3088 53.734 20.3122 53.7438 20.3177 53.7522C20.3233 53.7607 20.3309 53.7676 20.3397 53.7722C20.3485 53.7769 20.3584 53.7792 20.3683 53.7789L21.8115 53.7228C21.8202 53.7226 21.8287 53.7203 21.8364 53.7163C21.8441 53.7123 21.8509 53.7066 21.8563 53.6995C21.8616 53.6925 21.8654 53.6844 21.8673 53.6757C21.8692 53.667 21.8693 53.6579 21.8675 53.6492L21.4061 51.2884C21.4034 51.2758 21.3969 51.2644 21.3876 51.2559C21.3783 51.2473 21.3665 51.242 21.3541 51.2408C21.3417 51.2395 21.3292 51.2424 21.3184 51.2489C21.3076 51.2555 21.2992 51.2653 21.2942 51.2772L20.3123 53.694Z" fill="white"/>
<path d="M12.0176 53.8748C12.5707 55.7075 14.7457 55.4642 16.1936 55.5923C16.2525 55.5971 16.3078 55.6237 16.3494 55.6671C16.391 55.7106 16.4162 55.7681 16.4205 55.8292L16.5354 57.4794C16.5416 57.5658 16.5028 57.6154 16.4189 57.6282C16.1538 57.6666 15.6939 57.7152 15.0393 57.7739C12.8752 57.9675 10.6179 57.0968 9.98558 54.808C8.59824 49.7886 12.1311 47.4773 16.5168 48.1704C16.5507 48.1758 16.5815 48.1937 16.6035 48.2208C16.6255 48.2479 16.6372 48.2823 16.6364 48.3176L16.5929 49.7005C16.5898 49.7827 16.5484 49.8211 16.4686 49.8158C15.0316 49.7181 13.7514 49.406 12.5598 50.2927C11.6836 50.9442 11.7271 52.9129 12.0176 53.8748Z" fill="white"/>
<path d="M48.5392 49.7015C48.388 51.6584 48.1383 53.601 47.7903 55.5292C47.7531 55.7394 47.6231 56.0558 47.4004 56.4783C46.8256 57.5731 45.8686 58.0853 44.6366 57.9445C44.5807 57.9381 44.5527 57.9055 44.5527 57.8468L44.5543 56.5615C44.5543 56.4837 44.5921 56.4468 44.6677 56.4511C47.0493 56.5776 46.737 53.0211 46.9452 51.3148C47.0726 50.2713 47.1368 49.2277 47.1378 48.1841C47.1383 48.1513 47.151 48.1199 47.1734 48.0969C47.1958 48.0738 47.226 48.0609 47.2575 48.0609L51.1554 48.048C51.2299 48.048 51.2678 48.0865 51.2688 48.1633L51.4474 57.7252C51.4485 57.7892 51.4174 57.8207 51.3542 57.8196L50.0555 57.802C49.9995 57.802 49.9705 57.7732 49.9685 57.7156C49.9229 55.9933 49.9146 54.2748 49.9436 52.5601C49.9607 51.6157 49.8613 50.6634 49.8271 49.7127C49.825 49.6412 49.7893 49.6054 49.7199 49.6054H48.6401C48.578 49.6054 48.5443 49.6374 48.5392 49.7015Z" fill="white"/>
<path d="M64.4269 52.9493C65.199 53.2534 65.5502 53.8168 65.6822 54.6651C66.1374 57.5622 63.5678 58.2568 61.3664 58.0504C61.3156 58.0461 61.2882 58.0178 61.2841 57.9655C61.0634 55.291 61.065 51.4624 61.3633 48.2852C61.3683 48.2286 61.3927 48.1757 61.432 48.1361C61.4713 48.0965 61.523 48.0727 61.5777 48.0691C62.5424 48.0003 63.7356 48.0643 64.4673 48.6741C65.7164 49.7177 65.2829 51.7409 64.4114 52.8949C64.4081 52.8993 64.4059 52.9044 64.405 52.9098C64.404 52.9153 64.4043 52.9208 64.4058 52.9261C64.4073 52.9314 64.41 52.9363 64.4137 52.9403C64.4173 52.9443 64.4219 52.9474 64.4269 52.9493ZM62.5642 49.4488L62.4617 52.1986C62.4614 52.2035 62.4622 52.2083 62.4638 52.2128C62.4654 52.2174 62.4678 52.2216 62.471 52.2251C62.4742 52.2287 62.478 52.2316 62.4823 52.2336C62.4865 52.2357 62.4911 52.2368 62.4958 52.237L62.5487 52.2402C62.7378 52.2479 62.9264 52.2189 63.1038 52.1549C63.2813 52.0908 63.4439 51.9931 63.5826 51.8672C63.7213 51.7413 63.8332 51.5897 63.9119 51.4211C63.9907 51.2525 64.0348 51.0702 64.0416 50.8846C64.0486 50.699 64.0182 50.5138 63.9522 50.3395C63.8862 50.1653 63.7859 50.0053 63.6571 49.8689C63.5283 49.7324 63.3734 49.6221 63.2013 49.5443C63.0292 49.4664 62.8434 49.4226 62.6543 49.4152L62.6015 49.4136C62.5968 49.4134 62.5921 49.4141 62.5877 49.4158C62.5833 49.4175 62.5792 49.42 62.5757 49.4233C62.5723 49.4265 62.5695 49.4305 62.5675 49.4349C62.5655 49.4392 62.5644 49.444 62.5642 49.4488ZM62.5005 54.0377L62.3731 56.621C62.3706 56.6794 62.3906 56.7364 62.4287 56.7796C62.4668 56.8227 62.52 56.8486 62.5766 56.8515L62.8827 56.8675C63.2715 56.8877 63.6519 56.7521 63.9403 56.4907C64.2287 56.2293 64.4015 55.8634 64.4207 55.4734L64.4238 55.3902C64.4427 55.0004 64.3066 54.6186 64.0453 54.3287C63.784 54.0387 63.4189 53.8644 63.0303 53.844L62.7258 53.828C62.6976 53.8265 62.6694 53.8307 62.6429 53.8405C62.6163 53.8502 62.5918 53.8652 62.5709 53.8847C62.55 53.9042 62.533 53.9277 62.5209 53.954C62.5088 53.9802 62.5019 54.0087 62.5005 54.0377Z" fill="white"/>
<path d="M54.4645 52.3273C56.1828 52.5274 57.6385 53.1532 57.4381 55.2884C57.2159 57.6429 54.7597 58.019 52.9343 57.7229C52.8928 57.716 52.855 57.6941 52.8277 57.661C52.8004 57.6278 52.7853 57.5857 52.7851 57.542L52.8581 48.2858C52.8592 48.2005 52.9011 48.1583 52.984 48.1594L54.3325 48.1802C54.3644 48.1808 54.3958 48.188 54.425 48.2014C54.4541 48.2148 54.4803 48.2341 54.5021 48.2581C54.5238 48.2822 54.5406 48.3105 54.5515 48.3414C54.5624 48.3722 54.5672 48.4051 54.5655 48.4379L54.3837 52.2265C54.3806 52.2862 54.4076 52.3198 54.4645 52.3273ZM54.2564 53.8895L54.1507 56.3832C54.1501 56.3975 54.1522 56.4118 54.1569 56.4252C54.1617 56.4387 54.1689 56.451 54.1783 56.4616C54.1877 56.4721 54.199 56.4807 54.2116 56.4867C54.2242 56.4928 54.2378 56.4962 54.2517 56.4968L54.8079 56.5224C54.9809 56.5303 55.1536 56.5074 55.3161 56.455C55.4785 56.4027 55.6276 56.3219 55.7547 56.2172C55.8818 56.1126 55.9844 55.9862 56.0568 55.8452C56.1292 55.7042 56.1699 55.5515 56.1766 55.3956L56.1905 55.0563C56.2037 54.7417 56.0776 54.4337 55.8398 54.2002C55.6021 53.9667 55.2723 53.8267 54.9228 53.8111L54.3667 53.7854C54.3528 53.7848 54.3389 53.787 54.3259 53.7919C54.3128 53.7967 54.3008 53.8042 54.2906 53.8139C54.2803 53.8236 54.272 53.8352 54.2662 53.8482C54.2603 53.8612 54.257 53.8752 54.2564 53.8895Z" fill="white"/>
<path d="M59.1045 48.1683C59.1455 48.1681 59.1861 48.1762 59.2241 48.1922C59.262 48.2082 59.2966 48.2317 59.3257 48.2614C59.3548 48.2912 59.378 48.3265 59.3939 48.3655C59.4098 48.4044 59.4181 48.4462 59.4183 48.4885L59.4773 57.1636C59.4779 57.2572 59.4716 57.3498 59.4589 57.4363C59.4461 57.5228 59.427 57.6015 59.4028 57.6678C59.3786 57.7341 59.3496 57.7867 59.3176 57.8227C59.2856 57.8587 59.2512 57.8773 59.2163 57.8775L58.334 57.8839C58.2636 57.8843 58.1955 57.8096 58.1448 57.6764C58.0941 57.5431 58.065 57.3621 58.0637 57.1732L58.0047 48.4981C58.0045 48.4558 58.0123 48.4139 58.0278 48.3748C58.0433 48.3357 58.0662 48.3001 58.095 48.2701C58.1239 48.2401 58.1582 48.2162 58.196 48.1998C58.2338 48.1835 58.2743 48.175 58.3154 48.1747L59.1045 48.1683Z" fill="white"/>
<path d="M46.9326 43.0202C46.9326 42.8211 46.8558 42.6302 46.7191 42.4894C46.5823 42.3486 46.3969 42.2696 46.2035 42.2696C46.0102 42.2696 45.8247 42.3486 45.688 42.4894C45.5513 42.6302 45.4745 42.8211 45.4745 43.0202L46.9326 43.0202Z" fill="#CAC0B4"/>
</svg>
