<svg width="44" height="44" viewBox="0 0 44 44" fill="none" xmlns="http://www.w3.org/2000/svg">
<rect x="2" y="2" width="40" height="40" rx="5" fill="#EA1919"/>
<path d="M31 31L26.657 26.657M26.657 26.657C27.3999 25.9141 27.9892 25.0321 28.3912 24.0615C28.7933 23.0909 29.0002 22.0506 29.0002 21C29.0002 19.9494 28.7933 18.909 28.3912 17.9384C27.9892 16.9678 27.3999 16.0858 26.657 15.343C25.9141 14.6001 25.0322 14.0108 24.0615 13.6087C23.0909 13.2067 22.0506 12.9998 21 12.9998C19.9494 12.9998 18.9091 13.2067 17.9384 13.6087C16.9678 14.0108 16.0859 14.6001 15.343 15.343C13.8427 16.8433 12.9998 18.8782 12.9998 21C12.9998 23.1217 13.8427 25.1566 15.343 26.657C16.8433 28.1573 18.8782 29.0002 21 29.0002C23.1218 29.0002 25.1567 28.1573 26.657 26.657Z" stroke="white" stroke-width="2" stroke-linecap="round" stroke-linejoin="round"/>
</svg>
