<svg width="20" height="20" viewBox="0 0 20 20" fill="none" xmlns="http://www.w3.org/2000/svg">
<path d="M5.49999 15V14.5H4.99999H4.37499C3.7893 14.5 3.2276 14.2673 2.81346 13.8532C2.39932 13.4391 2.16666 12.8774 2.16666 12.2917V5.20833C2.16666 4.62265 2.39932 4.06095 2.81346 3.64681C3.22761 3.23266 3.7893 3 4.37499 3H15.625C15.915 3 16.2022 3.05712 16.4701 3.1681C16.738 3.27908 16.9815 3.44174 17.1865 3.64681L17.5401 3.29325L17.1865 3.64681C17.3916 3.85187 17.5542 4.09531 17.6652 4.36324C17.7762 4.63117 17.8333 4.91833 17.8333 5.20833V12.2917C17.8333 12.5817 17.7762 12.8688 17.6652 13.1368C17.5542 13.4047 17.3916 13.6481 17.1865 13.8532C16.9815 14.0583 16.738 14.2209 16.4701 14.3319C16.2022 14.4429 15.915 14.5 15.625 14.5H10.8333H10.6667L10.5333 14.6L6.36666 17.725C6.00961 17.9928 5.49999 17.738 5.49999 17.2917V15Z" stroke="#ABABAB"/>
</svg>
