<svg width="14" height="16" viewBox="0 0 14 16" fill="none" xmlns="http://www.w3.org/2000/svg">
<path d="M10.9703 2.15198L12.7603 8.48531C12.7884 8.58447 12.793 8.68877 12.774 8.79003C12.7549 8.89129 12.7126 8.98675 12.6504 9.06892C12.5883 9.15108 12.5079 9.21772 12.4156 9.2636C12.3233 9.30947 12.2217 9.33333 12.1187 9.33331H8.29167C8.23681 9.33331 8.18266 9.34569 8.13325 9.36952C8.08383 9.39335 8.04044 9.42802 8.00628 9.47095C7.97213 9.51389 7.9481 9.56397 7.93599 9.61747C7.92388 9.67098 7.924 9.72653 7.93633 9.77998L8.103 10.5013C8.25567 11.163 8.30467 11.8446 8.24833 12.5213L8.21767 12.889C8.18481 13.2834 8.01321 13.6534 7.73333 13.9333C7.47733 14.1894 7.13009 14.3333 6.768 14.3333H6.688C6.469 14.3333 6.26733 14.2146 6.16133 14.0233L5.275 12.4283C4.87766 11.713 4.28535 11.1252 3.567 10.7333L1.34733 9.52331C1.2421 9.46589 1.1543 9.38115 1.09317 9.27802C1.03205 9.1749 0.999858 9.05719 1 8.93731V2.33331C1 2.1565 1.07024 1.98693 1.19526 1.86191C1.32029 1.73688 1.48986 1.66665 1.66667 1.66665H10.329C10.4742 1.66669 10.6153 1.71411 10.7311 1.80171C10.8469 1.8893 10.9308 2.01229 10.9703 2.15198Z" stroke="#EA1919" stroke-width="1.5" stroke-linecap="round" stroke-linejoin="round"/>
</svg>
