<svg width="20" height="14" viewBox="0 0 20 14" fill="none" xmlns="http://www.w3.org/2000/svg">
<path d="M1.35653 6.87858L1.3566 6.8784C2.73437 3.34896 5.96296 0.833252 10 0.833252C14.037 0.833252 17.2656 3.34896 18.6434 6.87841L18.6435 6.87858C18.674 6.9566 18.674 7.04324 18.6435 7.12125L18.6434 7.12143C17.2656 10.6509 14.037 13.1666 10 13.1666C5.96296 13.1666 2.73437 10.6509 1.3566 7.12143L1.35653 7.12125C1.32604 7.04324 1.32604 6.9566 1.35653 6.87858ZM10 9.99992C10.7956 9.99992 11.5587 9.68385 12.1213 9.12124C12.6839 8.55863 13 7.79557 13 6.99992C13 6.20427 12.6839 5.44121 12.1213 4.8786C11.5587 4.31599 10.7956 3.99992 10 3.99992C9.20435 3.99992 8.44129 4.31599 7.87868 4.8786C7.31607 5.44121 7 6.20427 7 6.99992C7 7.79557 7.31607 8.55863 7.87868 9.12124C8.44129 9.68385 9.20435 9.99992 10 9.99992Z" stroke="#ABABAB"/>
</svg>
