<svg width="24" height="24" viewBox="0 0 24 24" fill="none" xmlns="http://www.w3.org/2000/svg">
<path d="M22.5 22.5L17.4332 17.4332M17.4332 17.4332C18.2999 16.5665 18.9874 15.5375 19.4564 14.4051C19.9255 13.2727 20.1669 12.059 20.1669 10.8333C20.1669 9.60763 19.9255 8.39393 19.4564 7.26153C18.9874 6.12912 18.2999 5.1002 17.4332 4.2335C16.5665 3.36679 15.5375 2.67929 14.4051 2.21023C13.2727 1.74118 12.059 1.49976 10.8333 1.49976C9.60763 1.49976 8.39393 1.74118 7.26153 2.21023C6.12912 2.67929 5.1002 3.36679 4.2335 4.2335C2.48311 5.98388 1.49976 8.35791 1.49976 10.8333C1.49976 13.3087 2.48311 15.6828 4.2335 17.4332C5.98388 19.1835 8.35791 20.1669 10.8333 20.1669C13.3087 20.1669 15.6828 19.1835 17.4332 17.4332Z" stroke="#EA1919" stroke-width="2" stroke-linecap="round" stroke-linejoin="round"/>
</svg>
