<svg width="14" height="16" viewBox="0 0 14 16" fill="none" xmlns="http://www.w3.org/2000/svg">
<path d="M10.9703 13.848L12.7603 7.51469C12.7884 7.41553 12.793 7.31123 12.774 7.20997C12.7549 7.10871 12.7126 7.01325 12.6504 6.93108C12.5883 6.84892 12.5079 6.78228 12.4156 6.7364C12.3233 6.69053 12.2217 6.66667 12.1187 6.66669H8.29167C8.23681 6.66669 8.18266 6.65431 8.13325 6.63048C8.08383 6.60665 8.04044 6.57198 8.00628 6.52905C7.97213 6.48611 7.9481 6.43603 7.93599 6.38253C7.92388 6.32902 7.924 6.27347 7.93633 6.22002L8.103 5.49869C8.25567 4.83702 8.30467 4.15535 8.24833 3.47869L8.21767 3.11102C8.18481 2.71658 8.01321 2.34656 7.73333 2.06669C7.47733 1.81062 7.13009 1.66674 6.768 1.66669H6.688C6.469 1.66669 6.26733 1.78535 6.16133 1.97669L5.275 3.57169C4.87766 4.28703 4.28535 4.87482 3.567 5.26669L1.34733 6.47669C1.2421 6.53411 1.1543 6.61885 1.09317 6.72198C1.03205 6.8251 0.999858 6.94281 1 7.06269V13.6667C1 13.8435 1.07024 14.0131 1.19526 14.1381C1.32029 14.2631 1.48986 14.3334 1.66667 14.3334H10.329C10.4742 14.3333 10.6153 14.2859 10.7311 14.1983C10.8469 14.1107 10.9308 13.9877 10.9703 13.848Z" stroke="#11941E" stroke-width="1.5" stroke-linecap="round" stroke-linejoin="round"/>
</svg>
